<?xml version="1.0" encoding="UTF-8"?>
<svg width="449px" height="97px" viewBox="0 0 449 97" version="1.1" xmlns="http://www.w3.org/2000/svg" xmlns:xlink="http://www.w3.org/1999/xlink">
    <!-- Generator: Sketch 45.2 (43514) - http://www.bohemiancoding.com/sketch -->
    <title>GIPHY_Horizontal_Logo</title>
    <desc>Created with Sketch.</desc>
    <defs></defs>
    <g id="Page-1" stroke="none" stroke-width="1" fill="none" fill-rule="evenodd">
        <g id="Desktop-HD" transform="translate(-495.000000, -140.000000)">
            <g id="GIPHY_Horizontal_Logo" transform="translate(495.000000, 140.000000)">
                <g id="Y" transform="translate(369.478060, 10.694010)" fill-rule="nonzero" fill="#FFFFFF">
                    <polygon id="Shape" points="39.5143685 25.8795052 55.6088542 0.213880208 79.4030273 0.213880208 79.4030273 1.17634115 49.7271484 45.182194 49.7271484 74.965013 28.6064779 74.965013 28.6064779 45.182194 0.213880208 1.06940104 0.213880208 0.213880208 24.0080534 0.213880208"></polygon>
                </g>
                <g id="H" transform="translate(294.085286, 10.694010)" fill-rule="nonzero" fill="#FFFFFF">
                    <polygon id="Shape" points="48.283457 75.0719531 48.283457 46.7862956 21.3880208 46.7862956 21.3880208 75.0719531 0.26735026 75.0719531 0.26735026 0.320820313 21.3880208 0.320820313 21.3880208 28.713418 48.283457 28.713418 48.283457 0.320820313 69.1902474 0.320820313 69.1902474 75.0719531"></polygon>
                </g>
                <g id="P" transform="translate(219.761914, 10.694010)" fill-rule="nonzero" fill="#FFFFFF">
                    <path d="M21.601901,54.8068034 L21.601901,74.965013 L0.481230469,74.965013 L0.481230469,0.213880208 L36.7873958,0.213880208 C56.8386654,0.213880208 66.7840951,12.8328125 66.7840951,27.4301367 C66.7840951,42.7225716 56.7317253,54.5394531 36.7873958,54.7533333 L21.601901,54.7533333 L21.601901,54.8068034 Z M21.601901,36.947806 L36.7873958,36.947806 C42.6691016,36.947806 45.6634245,32.6702018 45.6634245,27.750957 C45.6634245,22.8317122 42.5621615,18.3402279 36.7873958,18.3402279 L21.601901,18.3402279 L21.601901,36.947806 Z" id="Shape"></path>
                </g>
                <g id="I" transform="translate(186.075781, 10.694010)" fill-rule="nonzero" fill="#FFFFFF">
                    <polygon id="Shape" points="0.106940104 74.965013 0.106940104 0.213880208 21.1206706 0.213880208 21.1206706 74.965013 0.106940104 74.965013"></polygon>
                </g>
                <g id="G" transform="translate(102.662500, 8.555208)" fill-rule="nonzero" fill="#FFFFFF">
                    <path d="M58.2288867,24.4892839 C52.7749414,19.3561589 46.1446549,17.9659375 41.1719401,17.9659375 C28.9807682,17.9659375 21.1206706,25.2378646 21.1206706,39.8351888 C21.1206706,49.4597982 26.1468555,61.2766797 41.1719401,61.2766797 C45.128724,61.2766797 51.33125,60.528099 55.6088542,57.4268359 L55.6088542,47.8022266 L36.7339258,47.8022266 L36.7339258,31.2799805 L73.2539714,31.2799805 L73.2539714,64.4848828 C68.5486068,74.0025521 55.5553841,79.1356771 41.1184701,79.1356771 C11.5495313,79.1356771 0.320820312,59.4052279 0.320820312,39.8351888 C0.320820312,20.3186198 13.1536328,0.213880208 41.2254102,0.213880208 C51.5986003,0.213880208 60.7419792,2.35268229 70.5804688,12.298112 L58.2288867,24.4892839 Z" id="Shape"></path>
                </g>
                <g id="Purple" transform="translate(64.164062, 32.082031)" fill="#9933FF">
                    <rect id="Rectangle-path" x="0" y="0" width="10.6940104" height="53.4700521"></rect>
                </g>
                <g id="Blue" transform="translate(0.000000, 85.552083)" fill="#00CCFF">
                    <rect id="Rectangle-path" x="0" y="0" width="74.8580729" height="10.6940104"></rect>
                </g>
                <g id="Green" transform="translate(0.000000, 10.694010)" fill="#00FF99">
                    <rect id="Rectangle-path" x="0" y="0" width="10.6940104" height="74.8580729"></rect>
                </g>
                <g id="Yellow" fill="#FFF35C">
                    <rect id="Rectangle-path" x="0" y="0" width="42.7760417" height="10.6940104"></rect>
                </g>
                <g id="Red_Corner" transform="translate(42.776042, 0.000000)" fill="#FF6666">
                    <polygon id="Shape" points="21.3880208 21.3880208 21.3880208 10.6940104 10.6940104 10.6940104 10.6940104 0 0 0 0 10.7474805 0 10.8009505 0 21.4414909 0 21.4414909 0 32.0820312 10.6940104 32.0820312 21.3880208 32.0820312 21.3880208 32.0820312 32.0820313 32.0820312 32.0820313 21.3880208"></polygon>
                </g>
                <g id="Yellow_Shadow" transform="translate(32.082031, 0.000000)" fill="#0F0F0F" opacity="0.4">
                    <polygon id="Shape" points="10.6940104 0 10.6940104 10.6940104 0 10.6940104"></polygon>
                </g>
                <g id="Purple_Shadow" transform="translate(64.164062, 32.082031)" fill="#0F0F0F" opacity="0.4">
                    <polygon id="Shape" points="0 10.8009505 0 0 10.6940104 0"></polygon>
                </g>
            </g>
        </g>
    </g>
</svg>